<?xml version="1.0" encoding="utf-8"?>
<!-- Generator: Adobe Illustrator 24.1.0, SVG Export Plug-In . SVG Version: 6.00 Build 0)  -->
<svg version="1.1" xmlns="http://www.w3.org/2000/svg" xmlns:xlink="http://www.w3.org/1999/xlink" x="0px" y="0px"
	 viewBox="0 0 500 100" style="enable-background:new 0 0 500 100;" xml:space="preserve">
<style type="text/css">
	.st0{display:none;}
	.st1{fill-rule:evenodd;clip-rule:evenodd;fill:#211D6A;}
	.st2{fill-rule:evenodd;clip-rule:evenodd;fill:#F65157;}
</style>
<g id="Layer_1" class="st0">
</g>
<g id="Layer_3">
	<g>
		<path class="st1" d="M188.94,51.41c-1.15-3.4-2.92-6.6-5.66-8.99c-3.53-3.1-7.93-4.18-12.55-4.18c-2.26,0-4.5,0.33-6.63,1.11
			c-2.04,0.75-3.87,1.9-5.48,3.38c-2.67,2.37-4.36,5.35-5.34,8.67H188.94L188.94,51.41z M152.61,64.04
			c0.25,1.39,0.67,2.73,1.28,4.03c1.01,2.19,2.52,4.1,4.28,5.75c3.67,3.5,8.11,4.95,13.14,4.95c3.59,0,6.93-0.89,9.96-2.84
			c2.13-1.37,3.85-3.11,5.23-5.15h15.73c-2.64,6.25-6.54,11.73-12.11,15.71c-5.53,3.94-11.83,5.76-18.6,5.76
			c-9.23,0-17.16-3.36-23.59-9.99c-6.39-6.59-9.65-14.58-9.65-23.77c0-9.21,2.91-17.41,9.43-24.02c6.57-6.67,14.84-9.59,24.11-9.59
			c9.23,0,17.25,3.17,23.53,10.01c6.54,7.09,9.13,15.94,9.13,25.45v3.71h-27.15H152.61L152.61,64.04z M89.91,49.4
			c-0.49,3.23-0.47,6.67-0.47,9.94v31.28H75.88V26.46h13.56v2.82c1.11-0.7,2.27-1.32,3.48-1.83c3.64-1.53,7.57-2.13,11.51-2.13
			c4.36,0,8.66,0.8,12.62,2.67c3.79,1.78,6.93,4.41,9.22,7.93c1.64,2.55,2.69,5.42,3.31,8.38c0.85,4.16,0.93,8.68,0.93,12.92v33.39
			h-13.67V55.08c0-4.02-0.48-9.6-3.16-12.79c-2.43-2.88-6.54-3.51-10.09-3.51c-2.57,0-5.08,0.47-7.38,1.66
			c-2.02,1.06-3.58,2.57-4.72,4.55C90.73,46.35,90.24,47.87,89.91,49.4L89.91,49.4z M16.15,58.47c0,5.56,1.65,10.44,5.47,14.53
			c3.67,3.94,8.13,5.76,13.5,5.76c5.29,0,9.67-1.84,13.28-5.72c3.83-4.13,5.42-9.09,5.42-14.67c0-5.56-1.54-10.56-5.45-14.62
			c-3.82-3.95-8.49-5.63-13.93-5.63c-5.15,0-9.31,2.05-12.81,5.77C17.8,48.01,16.15,52.9,16.15,58.47L16.15,58.47z M2,58.6
			c0-9.24,3.18-17.3,9.61-23.96c6.25-6.48,13.9-10.01,22.95-10.01c9.19,0,17.13,3.31,23.62,9.81c6.44,6.44,9.81,14.29,9.81,23.43
			c0,9.3-3.12,17.47-9.53,24.24c-6.32,6.65-14.12,10.14-23.32,10.14c-9.2,0-17.12-3.32-23.53-9.93C5.21,75.73,2,67.76,2,58.6z"/>
		<path class="st2" d="M226.47,47.12l16.11-20.66h16.61l-23.41,29.92l28.13,34.23H246.3l-19.82-24.33v24.33H212.7V7.76h13.78V47.12
			L226.47,47.12z M446.17,58.47c0,5.56,1.65,10.44,5.47,14.53c3.67,3.94,8.13,5.76,13.5,5.76c5.29,0,9.67-1.84,13.28-5.72
			c3.83-4.13,5.42-9.09,5.42-14.67c0-5.56-1.54-10.56-5.45-14.62c-3.82-3.95-8.49-5.63-13.93-5.63c-5.15,0-9.31,2.05-12.81,5.77
			C447.82,48.01,446.17,52.9,446.17,58.47L446.17,58.47z M432.02,58.6c0-9.24,3.18-17.3,9.61-23.96
			c6.25-6.48,13.9-10.01,22.95-10.01c9.19,0,17.13,3.31,23.62,9.81c6.44,6.44,9.81,14.29,9.81,23.43c0,9.3-3.12,17.47-9.53,24.24
			c-6.32,6.65-14.12,10.14-23.32,10.14c-9.2,0-17.12-3.32-23.53-9.93C435.23,75.73,432.02,67.76,432.02,58.6L432.02,58.6z
			 M410.25,90.61V7.76h13.78v82.85H410.25L410.25,90.61z M385.73,51.41c-1.15-3.4-2.92-6.6-5.66-8.99
			c-3.53-3.1-7.93-4.18-12.55-4.18c-2.26,0-4.5,0.33-6.62,1.11c-2.04,0.75-3.87,1.9-5.48,3.38c-2.67,2.37-4.36,5.35-5.34,8.67
			H385.73L385.73,51.41z M349.4,64.04c0.25,1.39,0.67,2.73,1.28,4.03c1.01,2.19,2.52,4.1,4.28,5.75c3.67,3.5,8.11,4.95,13.14,4.95
			c3.59,0,6.93-0.89,9.96-2.84c2.13-1.37,3.85-3.11,5.23-5.15h15.73c-2.64,6.25-6.54,11.73-12.11,15.71
			c-5.53,3.94-11.83,5.76-18.6,5.76c-9.23,0-17.16-3.36-23.59-9.99c-6.39-6.59-9.65-14.58-9.65-23.77c0-9.21,2.91-17.41,9.43-24.02
			c6.57-6.67,14.84-9.59,24.11-9.59c9.23,0,17.25,3.17,23.53,10.01c6.54,7.09,9.13,15.94,9.13,25.45v3.71h-27.18H349.4L349.4,64.04z
			 M311.65,51.41c-1.15-3.4-2.92-6.6-5.66-8.99c-3.53-3.1-7.93-4.18-12.55-4.18c-2.26,0-4.5,0.33-6.62,1.11
			c-2.04,0.75-3.87,1.9-5.48,3.38c-2.67,2.37-4.36,5.35-5.34,8.67H311.65L311.65,51.41z M275.31,64.04h25.54h26.33v-3.71
			c0-9.5-2.59-18.36-9.13-25.45c-6.29-6.84-14.31-10.01-23.53-10.01c-9.27,0-17.54,2.92-24.11,9.59
			c-6.52,6.61-9.43,14.81-9.43,24.02c0,9.19,3.25,17.18,9.65,23.77c6.43,6.62,14.36,9.99,23.59,9.99c6.76,0,13.07-1.81,18.6-5.76
			c5.57-3.98,9.47-9.46,12.11-15.71H309.2c-1.38,2.03-3.1,3.77-5.23,5.15c-3.03,1.95-6.37,2.84-9.96,2.84
			c-5.02,0-9.46-1.45-13.14-4.95c-1.76-1.64-3.28-3.56-4.28-5.75C275.98,66.78,275.56,65.43,275.31,64.04z"/>
	</g>
</g>
</svg>
